<?xml version="1.0" standalone="no"?>
<!DOCTYPE svg PUBLIC "-//W3C//DTD SVG 20010904//EN"
 "http://www.w3.org/TR/2001/REC-SVG-20010904/DTD/svg10.dtd">
<svg version="1.0" xmlns="http://www.w3.org/2000/svg"
 width="389.000000pt" height="389.000000pt" viewBox="0 0 389.000000 389.000000"
 preserveAspectRatio="xMidYMid meet">
<metadata>
Created by potrace 1.11, written by Peter Selinger 2001-2013
</metadata>
<g transform="translate(0.000000,389.000000) scale(0.100000,-0.100000)"
fill="#000000" stroke="none">
<path d="M1830 3882 c-529 -47 -981 -451 -1100 -982 -49 -220 -44 -383 16
-568 34 -102 106 -256 173 -367 29 -49 65 -108 78 -130 13 -22 48 -74 78 -115
69 -95 91 -133 78 -137 -28 -10 -202 -118 -270 -169 -159 -119 -347 -329 -456
-510 -138 -230 -225 -524 -241 -812 -3 -60 -1 -74 13 -80 12 -5 3380 -8 3482
-3 13 1 16 12 13 64 -7 149 -17 217 -49 354 -109 459 -416 869 -827 1104 -48
28 -90 54 -93 59 -3 4 31 59 75 122 247 352 378 654 382 883 2 61 -8 192 -17
235 -2 8 -8 38 -14 65 -63 310 -278 621 -551 797 -141 91 -324 159 -490 183
-51 8 -228 12 -280 7z"/>
</g>
</svg>
